<svg xmlns="http://www.w3.org/2000/svg" viewBox="0 0 36 36"><path d="m35.881 25.012a18 10 0 0 1-17.881 8.9883 18 10 0 0 1-17.879-8.9766 18 10 0 0 0-0.12109 0.97656 18 10 0 0 0 18 10 18 10 0 0 0 18-10 18 10 0 0 0-0.11914-0.98828z"/><path d="m17.998 31c-14.958 0-16.998-15-16.998-19 0 0 1.9952 8.6915 16.998 8.6929 15.003 0.001384 17.002-8.6929 17.002-8.6929 0 2-1.9599 19-17.002 19z"/><path d="m28.346 2.1426c-2.5788 0.068094-5.1797 0.92841-6.1641 1.7031-1.34-0.148-2.7366-0.23438-4.1816-0.23438-9.389 0-17 3.2284-17 8.4434 0 5.216 7.611 9.4453 17 9.4453s17-4.2284 17-9.4434c0-0.863-0.22623-1.6641-0.61523-2.4121 1.4499-6.0105-2.27-7.6015-6.0391-7.502zm-0.074219 2.3086c1.5704-0.047953 3.1838 0.58075 3.6113 2.5-1.357-0.938-3.1021-1.694-5.1211-2.25 0.46875-0.144 0.98631-0.23402 1.5098-0.25zm-10.271 1.5488a15 7 0 0 1 15 7 15 7 0 0 1-15 7 15 7 0 0 1-15-7 15 7 0 0 1 15-7z"/></svg>