<svg viewBox="0 0 36 36" xmlns="http://www.w3.org/2000/svg"><path d="m35.881 25.012a18 10 0 0 1-17.881 8.9883 18 10 0 0 1-17.879-8.9766 18 10 0 0 0-0.12109 0.97656 18 10 0 0 0 18 10 18 10 0 0 0 18-10 18 10 0 0 0-0.11914-0.98828z"/><path d="m28.346 2.1426c-2.5788 0.068094-5.1797 0.92844-6.1641 1.7031-1.34-0.148-2.7366-0.23438-4.1816-0.23438-9.3605 0-16.952 3.2094-16.998 8.3965-2.66e-5 -1.14e-4 -0.0019531-0.007812-0.0019531-0.007812 0 0.008957 0.0019325 0.022183 0.0019531 0.03125-3.52e-5 0.007922-0.0019531 0.015506-0.0019531 0.023438 0 0.044513 0.0047544 0.088444 0.0058594 0.13281 0.055964 4.233 2.235 18.812 16.992 18.812 13.978 0 16.656-14.665 16.965-18.346 0.022255-0.19778 0.037109-0.39676 0.037109-0.59766 0-0.011849-0.001868-0.023331-0.001953-0.035157 2.4e-5 -0.00514 0.001953-0.016528 0.001953-0.021484 0 0-0.001937 0.005792-0.001953 0.005859-0.008767-0.84349-0.23199-1.6282-0.61328-2.3613 1.4499-6.0105-2.27-7.6015-6.0391-7.502zm-0.074219 2.3086c1.5704-0.047953 3.1838 0.58075 3.6113 2.5-1.357-0.938-3.1021-1.694-5.1211-2.25 0.46875-0.144 0.98628-0.23402 1.5098-0.25zm-10.271 1.5488a15 7 0 0 1 15 7 15 7 0 0 1-15 7 15 7 0 0 1-15-7 15 7 0 0 1 15-7z"/></svg>